<svg xmlns="http://www.w3.org/2000/svg" viewBox="0 0 120 120" role="img" aria-label="保健体育">
  <rect width="120" height="120" rx="20" fill="#f8fbf8"/>
  <path d="M28 72c12-21 21-31 32-31 10 0 16 9 21 17 5-8 10-17 18-17 8 0 13 7 13 15 0 22-31 40-31 40S51 78 28 72Z" fill="#2f6f6b"/>
  <path d="M8 65h20l8-18 11 35 13-48 12 31h18" fill="none" stroke="#d95d48" stroke-width="8" stroke-linecap="round" stroke-linejoin="round"/>
  <circle cx="31" cy="31" r="13" fill="#f0c453"/>
  <path d="M31 16v30M16 31h30" stroke="#20303a" stroke-width="6" stroke-linecap="round"/>
</svg>
